<svg width="667" height="326" viewBox="0 0 667 326" fill="none" xmlns="http://www.w3.org/2000/svg">
<path d="M137.5 168.5V156L165 168.5V249L154.5 245V176.5L137.5 168.5Z" fill="url(#paint0_linear_272_2)"/>
<path d="M194 134L148 152.5L159.5 159.5L207 141L194 134Z" fill="url(#paint1_linear_272_2)"/>
<path d="M95 169L104.5 165.5V177L94.5 180.5L80.5 175V163L95 169Z" fill="url(#paint2_linear_272_2)"/>
<path d="M105 154.5V143L63 124V249L73.5 245V141.5L105 154.5Z" fill="url(#paint3_linear_272_2)"/>
<path d="M20 146C22.5 144.5 27.8 141.5 29 141.5L55.5 153V164.5L20 150V146Z" fill="url(#paint4_linear_272_2)"/>
<path d="M65 94L78 87.5L31.5 63L19.5 71L65 94Z" fill="url(#paint5_linear_272_2)"/>
<path d="M144 78L159 72.5L158 60L131 71L144 78Z" fill="url(#paint6_linear_272_2)"/>
<path d="M0.5 55.1934L94 0L180 53.5V99L165.5 91V59.5L104 23V73.5L84.5 83V26.5L14.5 66V119.5L0.5 127V55.1934Z" fill="url(#paint7_linear_272_2)"/>
<path d="M0 135.5L121.5 73L228.5 133.5L229.5 272.5L171.5 252V209.5L179.5 213.5V243.5L214 256.5V138.5L130 93.5V244.5L120.5 257.5L111.5 243.5V93.5L14 143.5V256.5L48.5 243.5V217L56.5 213.5V252L0 272.5V135.5Z" fill="url(#paint8_linear_272_2)"/>
<path d="M274.8 185V135.5H287.67C292.45 135.5 296.18 136.56 298.86 138.68C301.56 140.78 302.91 143.88 302.91 147.98C302.91 153.22 300.69 156.88 296.25 158.96C299.81 159.5 302.54 160.84 304.44 162.98C306.34 165.1 307.29 167.89 307.29 171.35C307.29 174.19 306.65 176.63 305.37 178.67C304.09 180.71 302.26 182.28 299.88 183.38C297.52 184.46 294.71 185 291.45 185H274.8ZM282.66 156.35H285.93C288.97 156.35 291.3 155.71 292.92 154.43C294.54 153.15 295.35 151.32 295.35 148.94C295.35 146.54 294.55 144.72 292.95 143.48C291.35 142.24 289.01 141.62 285.93 141.62H282.66V156.35ZM282.66 178.82H288.9C292.24 178.82 294.77 178.16 296.49 176.84C298.23 175.52 299.1 173.61 299.1 171.11C299.1 168.57 298.21 166.61 296.43 165.23C294.67 163.85 292.16 163.16 288.9 163.16H282.66V178.82ZM346.604 185.96C343.144 185.96 339.904 185.3 336.884 183.98C333.864 182.66 331.214 180.83 328.934 178.49C326.654 176.13 324.864 173.4 323.564 170.3C322.284 167.18 321.644 163.84 321.644 160.28C321.644 156.7 322.284 153.36 323.564 150.26C324.864 147.16 326.654 144.44 328.934 142.1C331.214 139.74 333.864 137.9 336.884 136.58C339.904 135.26 343.144 134.6 346.604 134.6C350.064 134.6 353.304 135.26 356.324 136.58C359.344 137.9 361.994 139.74 364.274 142.1C366.554 144.44 368.334 147.16 369.614 150.26C370.914 153.36 371.564 156.7 371.564 160.28C371.564 163.84 370.914 167.18 369.614 170.3C368.334 173.4 366.554 176.13 364.274 178.49C361.994 180.83 359.344 182.66 356.324 183.98C353.304 185.3 350.064 185.96 346.604 185.96ZM346.604 178.4C348.964 178.4 351.144 177.95 353.144 177.05C355.164 176.13 356.914 174.86 358.394 173.24C359.894 171.6 361.054 169.68 361.874 167.48C362.694 165.28 363.104 162.88 363.104 160.28C363.104 157.68 362.694 155.28 361.874 153.08C361.054 150.88 359.894 148.97 358.394 147.35C356.914 145.71 355.164 144.44 353.144 143.54C351.144 142.62 348.964 142.16 346.604 142.16C344.264 142.16 342.084 142.62 340.064 143.54C338.064 144.44 336.314 145.71 334.814 147.35C333.334 148.97 332.184 150.88 331.364 153.08C330.544 155.28 330.134 157.68 330.134 160.28C330.134 162.88 330.544 165.28 331.364 167.48C332.184 169.68 333.334 171.6 334.814 173.24C336.314 174.86 338.064 176.13 340.064 177.05C342.084 177.95 344.264 178.4 346.604 178.4ZM412.601 185.96C409.141 185.96 405.901 185.3 402.881 183.98C399.861 182.66 397.211 180.83 394.931 178.49C392.651 176.13 390.861 173.4 389.561 170.3C388.281 167.18 387.641 163.84 387.641 160.28C387.641 156.7 388.281 153.36 389.561 150.26C390.861 147.16 392.651 144.44 394.931 142.1C397.211 139.74 399.861 137.9 402.881 136.58C405.901 135.26 409.141 134.6 412.601 134.6C416.061 134.6 419.301 135.26 422.321 136.58C425.341 137.9 427.991 139.74 430.271 142.1C432.551 144.44 434.331 147.16 435.611 150.26C436.911 153.36 437.561 156.7 437.561 160.28C437.561 163.84 436.911 167.18 435.611 170.3C434.331 173.4 432.551 176.13 430.271 178.49C427.991 180.83 425.341 182.66 422.321 183.98C419.301 185.3 416.061 185.96 412.601 185.96ZM412.601 178.4C414.961 178.4 417.141 177.95 419.141 177.05C421.161 176.13 422.911 174.86 424.391 173.24C425.891 171.6 427.051 169.68 427.871 167.48C428.691 165.28 429.101 162.88 429.101 160.28C429.101 157.68 428.691 155.28 427.871 153.08C427.051 150.88 425.891 148.97 424.391 147.35C422.911 145.71 421.161 144.44 419.141 143.54C417.141 142.62 414.961 142.16 412.601 142.16C410.261 142.16 408.081 142.62 406.061 143.54C404.061 144.44 402.311 145.71 400.811 147.35C399.331 148.97 398.181 150.88 397.361 153.08C396.541 155.28 396.131 157.68 396.131 160.28C396.131 162.88 396.541 165.28 397.361 167.48C398.181 169.68 399.331 171.6 400.811 173.24C402.311 174.86 404.061 176.13 406.061 177.05C408.081 177.95 410.261 178.4 412.601 178.4ZM463.315 185V142.49H449.845V135.5H484.645V142.49H471.145V185H463.315ZM299.28 265.96C295.54 265.96 292.05 265.31 288.81 264.01C285.57 262.69 282.72 260.86 280.26 258.52C277.82 256.18 275.91 253.46 274.53 250.36C273.15 247.24 272.46 243.88 272.46 240.28C272.46 236.7 273.15 233.35 274.53 230.23C275.93 227.11 277.85 224.38 280.29 222.04C282.73 219.7 285.56 217.88 288.78 216.58C292.02 215.26 295.5 214.6 299.22 214.6C302.28 214.6 305.18 215.04 307.92 215.92C310.66 216.8 313.03 217.97 315.03 219.43L311.58 226.09C310.08 224.89 308.3 223.96 306.24 223.3C304.18 222.64 302.01 222.31 299.73 222.31C297.03 222.31 294.54 222.77 292.26 223.69C289.98 224.61 287.99 225.89 286.29 227.53C284.61 229.15 283.31 231.05 282.39 233.23C281.47 235.41 281.01 237.76 281.01 240.28C281.01 242.8 281.47 245.15 282.39 247.33C283.31 249.51 284.61 251.42 286.29 253.06C287.99 254.68 289.98 255.95 292.26 256.87C294.54 257.79 297.03 258.25 299.73 258.25C302.01 258.25 304.18 257.92 306.24 257.26C308.3 256.6 310.08 255.67 311.58 254.47L315.03 261.13C313.09 262.55 310.75 263.71 308.01 264.61C305.29 265.51 302.38 265.96 299.28 265.96ZM332.388 265V215.5H347.808C351.128 215.5 354.008 216.08 356.448 217.24C358.908 218.4 360.798 220.07 362.118 222.25C363.458 224.43 364.128 227.05 364.128 230.11C364.128 232.65 363.648 234.93 362.688 236.95C361.748 238.95 360.388 240.61 358.608 241.93C356.848 243.25 354.728 244.17 352.248 244.69L368.538 265H358.578L343.758 245.56H340.248V265H332.388ZM340.248 238.96H345.498C347.678 238.96 349.548 238.62 351.108 237.94C352.668 237.24 353.858 236.25 354.678 234.97C355.518 233.67 355.938 232.12 355.938 230.32C355.938 227.62 355.018 225.53 353.178 224.05C351.358 222.55 348.798 221.8 345.498 221.8H340.248V238.96ZM379.18 265L398.89 215.5H406.18L425.92 265H417.46L412.6 252.1H392.5L387.61 265H379.18ZM395.17 245.2H409.93L402.52 226.06L395.17 245.2ZM443.114 265V215.5H469.904V222.4H448.844L450.974 220.54V239.44L448.844 236.74H468.584V243.64H448.844L450.974 240.94V265H443.114ZM494.333 265V222.49H480.863V215.5H515.663V222.49H502.163V265H494.333ZM533.214 265V215.5H559.824V222.4H541.074V236.74H559.104V243.64H541.074V258.1H559.824V265H533.214ZM580.638 265V215.5H596.058C599.378 215.5 602.258 216.08 604.698 217.24C607.158 218.4 609.048 220.07 610.368 222.25C611.708 224.43 612.378 227.05 612.378 230.11C612.378 232.65 611.898 234.93 610.938 236.95C609.998 238.95 608.638 240.61 606.858 241.93C605.098 243.25 602.978 244.17 600.498 244.69L616.788 265H606.828L592.008 245.56H588.498V265H580.638ZM588.498 238.96H593.748C595.928 238.96 597.798 238.62 599.358 237.94C600.918 237.24 602.108 236.25 602.928 234.97C603.768 233.67 604.188 232.12 604.188 230.32C604.188 227.62 603.268 225.53 601.428 224.05C599.608 222.55 597.048 221.8 593.748 221.8H588.498V238.96ZM645.79 265.96C643.41 265.96 641.25 265.66 639.31 265.06C637.37 264.46 635.66 263.72 634.18 262.84C632.72 261.94 631.49 261.04 630.49 260.14C629.49 259.24 628.73 258.5 628.21 257.92L632.35 251.56C632.91 252.14 633.61 252.83 634.45 253.63C635.31 254.43 636.31 255.22 637.45 256C638.59 256.76 639.87 257.4 641.29 257.92C642.71 258.42 644.28 258.67 646 258.67C647.62 258.67 649.07 258.4 650.35 257.86C651.63 257.32 652.65 256.52 653.41 255.46C654.17 254.38 654.55 253.05 654.55 251.47C654.55 250.09 654.26 248.91 653.68 247.93C653.12 246.95 652.31 246.1 651.25 245.38C650.19 244.64 648.93 243.94 647.47 243.28C646.01 242.6 644.38 241.9 642.58 241.18C641.3 240.64 640.03 240.01 638.77 239.29C637.53 238.57 636.4 237.71 635.38 236.71C634.38 235.71 633.58 234.56 632.98 233.26C632.38 231.94 632.08 230.42 632.08 228.7C632.08 226.84 632.44 225.07 633.16 223.39C633.9 221.69 634.94 220.18 636.28 218.86C637.62 217.54 639.21 216.5 641.05 215.74C642.91 214.98 644.98 214.6 647.26 214.6C649.12 214.6 650.93 214.87 652.69 215.41C654.45 215.95 656.05 216.65 657.49 217.51C658.95 218.37 660.14 219.29 661.06 220.27L657.64 226.24C656.88 225.46 655.97 224.73 654.91 224.05C653.87 223.35 652.71 222.79 651.43 222.37C650.15 221.95 648.81 221.74 647.41 221.74C645.77 221.74 644.38 222.06 643.24 222.7C642.1 223.34 641.22 224.18 640.6 225.22C640 226.24 639.7 227.35 639.7 228.55C639.7 229.59 639.91 230.48 640.33 231.22C640.77 231.94 641.37 232.56 642.13 233.08C642.89 233.6 643.76 234.08 644.74 234.52C645.74 234.94 646.79 235.36 647.89 235.78C650.07 236.66 652.08 237.56 653.92 238.48C655.78 239.38 657.39 240.41 658.75 241.57C660.11 242.71 661.16 244.07 661.9 245.65C662.66 247.21 663.04 249.09 663.04 251.29C663.04 254.37 662.3 257.01 660.82 259.21C659.36 261.41 657.33 263.09 654.73 264.25C652.15 265.39 649.17 265.96 645.79 265.96Z" fill="#C6AB2E"/>
<path d="M250 311V307L0 309L250 311Z" fill="#C6AB2E"/>
<path d="M360 311V307L610 309L360 311Z" fill="#C6AB2E"/>
<path d="M263.567 319V297.55H275.098V300.54H266.973V306.754H274.786V309.744H266.973V316.01H275.098V319H263.567ZM284.117 319V297.55H287.523V316.01H295.713V319H284.117ZM303.321 319V297.55H306.727V319H303.321ZM318.94 319V300.579H313.103V297.55H328.183V300.579H322.333V319H318.94ZM335.789 319V297.55H347.32V300.54H339.195V306.754H347.008V309.744H339.195V316.01H347.32V319H335.789Z" fill="#C6AB2E"/>
<defs>
<linearGradient id="paint0_linear_272_2" x1="137.5" y1="173.547" x2="168.238" y2="176.076" gradientUnits="userSpaceOnUse">
<stop stop-color="#C59A00"/>
<stop offset="0.9999" stop-color="#F2E8C4"/>
</linearGradient>
<linearGradient id="paint1_linear_272_2" x1="148" y1="138.811" x2="194.936" y2="169.031" gradientUnits="userSpaceOnUse">
<stop stop-color="#C59A00"/>
<stop offset="0.9999" stop-color="#F2E8C4"/>
</linearGradient>
<linearGradient id="paint2_linear_272_2" x1="80.5" y1="166.302" x2="104.074" y2="175.298" gradientUnits="userSpaceOnUse">
<stop stop-color="#C59A00"/>
<stop offset="0.9999" stop-color="#F2E8C4"/>
</linearGradient>
<linearGradient id="paint3_linear_272_2" x1="63" y1="147.585" x2="109.853" y2="151.966" gradientUnits="userSpaceOnUse">
<stop stop-color="#C59A00"/>
<stop offset="0.9999" stop-color="#F2E8C4"/>
</linearGradient>
<linearGradient id="paint4_linear_272_2" x1="20" y1="145.84" x2="53.7264" y2="160.325" gradientUnits="userSpaceOnUse">
<stop stop-color="#C59A00"/>
<stop offset="0.9999" stop-color="#F2E8C4"/>
</linearGradient>
<linearGradient id="paint5_linear_272_2" x1="19.5" y1="68.8491" x2="71.1006" y2="95.9461" gradientUnits="userSpaceOnUse">
<stop stop-color="#C59A00"/>
<stop offset="0.9999" stop-color="#F2E8C4"/>
</linearGradient>
<linearGradient id="paint6_linear_272_2" x1="131" y1="63.3962" x2="157.536" y2="74.883" gradientUnits="userSpaceOnUse">
<stop stop-color="#C59A00"/>
<stop offset="0.9999" stop-color="#F2E8C4"/>
</linearGradient>
<linearGradient id="paint7_linear_272_2" x1="0.499997" y1="23.9623" x2="175.431" y2="92.7643" gradientUnits="userSpaceOnUse">
<stop stop-color="#C59A00"/>
<stop offset="0.9999" stop-color="#F2E8C4"/>
</linearGradient>
<linearGradient id="paint8_linear_272_2" x1="-3.78417e-06" y1="110.642" x2="234.251" y2="185.63" gradientUnits="userSpaceOnUse">
<stop stop-color="#C59A00"/>
<stop offset="0.9999" stop-color="#F2E8C4"/>
</linearGradient>
</defs>
</svg>
